<svg xmlns="http://www.w3.org/2000/svg" viewBox="0 0 1200 400">
  <defs>
    <linearGradient id="g" x1="0" x2="1">
      <stop offset="0" stop-color="#6a4c93"/>
      <stop offset="1" stop-color="#1e6091"/>
    </linearGradient>
  </defs>
  <rect width="1200" height="400" rx="20" fill="url(#g)" />
  <g transform="translate(60,40)" fill="#fff" opacity="0.95">
    <rect x="0" y="0" width="480" height="300" rx="12" fill="#0d1b2a" opacity="0.12"/>
    <rect x="520" y="0" width="560" height="300" rx="12" fill="#0d1b2a" opacity="0.08"/>
    <g transform="translate(30,25)">
      <path d="M0 210 L120 80 L240 140 L360 60 L480 120" stroke="#8be9d0" stroke-width="8" fill="none" stroke-linecap="round" stroke-linejoin="round" opacity="0.95"/>
      <rect x="0" y="230" width="520" height="18" rx="8" fill="#e0e1dd" opacity="0.08"/>
    </g>
    <g transform="translate(560,25)">
      <rect x="0" y="0" width="260" height="140" rx="8" fill="#fff" opacity="0.06"/>
      <rect x="20" y="20" width="220" height="18" rx="6" fill="#8be9d0" opacity="0.95"/>
      <rect x="20" y="50" width="220" height="10" rx="5" fill="#dfe7ec" opacity="0.25"/>
      <rect x="20" y="70" width="120" height="10" rx="5" fill="#dfe7ec" opacity="0.12"/>
      <g transform="translate(0,160)">
        <rect x="0" y="0" width="520" height="18" rx="8" fill="#e0e1dd" opacity="0.06"/>
      </g>
    </g>
  </g>
</svg>
